<mxfile host="app.diagrams.net" modified="2023-07-16T13:37:27.925Z" agent="Mozilla/5.0 (Windows NT 10.0; Win64; x64) AppleWebKit/537.36 (KHTML, like Gecko) Chrome/114.0.0.0 Safari/537.36" etag="A09OJa-j1wJ0_lOuj3Oc" version="21.6.2" type="device">
  <diagram name="Page-1" id="w4me3UPlAbkmXNmgncLt">
    <mxGraphModel dx="1050" dy="581" grid="1" gridSize="10" guides="1" tooltips="1" connect="1" arrows="1" fold="1" page="1" pageScale="1" pageWidth="827" pageHeight="1169" math="0" shadow="0">
      <root>
        <mxCell id="0" />
        <mxCell id="1" parent="0" />
        <mxCell id="ZX-tmzzD470uD2389-w3-12" value="weather website" style="shape=umlLifeline;perimeter=lifelinePerimeter;whiteSpace=wrap;html=1;container=1;dropTarget=0;collapsible=0;recursiveResize=0;outlineConnect=0;portConstraint=eastwest;newEdgeStyle={&quot;edgeStyle&quot;:&quot;elbowEdgeStyle&quot;,&quot;elbow&quot;:&quot;vertical&quot;,&quot;curved&quot;:0,&quot;rounded&quot;:0};" parent="1" vertex="1">
          <mxGeometry x="340" y="60" width="100" height="820" as="geometry" />
        </mxCell>
        <mxCell id="ZX-tmzzD470uD2389-w3-27" value="" style="html=1;points=[];perimeter=orthogonalPerimeter;outlineConnect=0;targetShapes=umlLifeline;portConstraint=eastwest;newEdgeStyle={&quot;edgeStyle&quot;:&quot;elbowEdgeStyle&quot;,&quot;elbow&quot;:&quot;vertical&quot;,&quot;curved&quot;:0,&quot;rounded&quot;:0};" parent="ZX-tmzzD470uD2389-w3-12" vertex="1">
          <mxGeometry x="40" y="100" width="20" height="40" as="geometry" />
        </mxCell>
        <mxCell id="ZX-tmzzD470uD2389-w3-31" value="" style="html=1;points=[];perimeter=orthogonalPerimeter;outlineConnect=0;targetShapes=umlLifeline;portConstraint=eastwest;newEdgeStyle={&quot;edgeStyle&quot;:&quot;elbowEdgeStyle&quot;,&quot;elbow&quot;:&quot;vertical&quot;,&quot;curved&quot;:0,&quot;rounded&quot;:0};" parent="ZX-tmzzD470uD2389-w3-12" vertex="1">
          <mxGeometry x="40" y="260" width="20" height="40" as="geometry" />
        </mxCell>
        <mxCell id="ZX-tmzzD470uD2389-w3-13" value="open weather API" style="shape=umlLifeline;perimeter=lifelinePerimeter;whiteSpace=wrap;html=1;container=1;dropTarget=0;collapsible=0;recursiveResize=0;outlineConnect=0;portConstraint=eastwest;newEdgeStyle={&quot;edgeStyle&quot;:&quot;elbowEdgeStyle&quot;,&quot;elbow&quot;:&quot;vertical&quot;,&quot;curved&quot;:0,&quot;rounded&quot;:0};" parent="1" vertex="1">
          <mxGeometry x="630" y="60" width="100" height="830" as="geometry" />
        </mxCell>
        <mxCell id="ZX-tmzzD470uD2389-w3-28" value="open website" style="text;html=1;align=center;verticalAlign=middle;resizable=0;points=[];autosize=1;strokeColor=none;fillColor=none;" parent="1" vertex="1">
          <mxGeometry x="235" y="148" width="90" height="30" as="geometry" />
        </mxCell>
        <mxCell id="ZX-tmzzD470uD2389-w3-29" value="" style="endArrow=block;startArrow=none;endFill=0;startFill=0;endSize=8;html=1;verticalAlign=bottom;dashed=1;labelBackgroundColor=none;rounded=0;" parent="1" source="ZX-tmzzD470uD2389-w3-12" target="ZX-tmzzD470uD2389-w3-11" edge="1">
          <mxGeometry width="160" relative="1" as="geometry">
            <mxPoint x="330" y="440" as="sourcePoint" />
            <mxPoint x="490" y="440" as="targetPoint" />
            <Array as="points">
              <mxPoint x="290" y="260" />
              <mxPoint x="230" y="260" />
            </Array>
          </mxGeometry>
        </mxCell>
        <mxCell id="ZX-tmzzD470uD2389-w3-30" value="show website of&amp;nbsp;Reigate &amp;amp; Banstead" style="text;html=1;align=center;verticalAlign=middle;resizable=0;points=[];autosize=1;strokeColor=none;fillColor=none;" parent="1" vertex="1">
          <mxGeometry x="170" y="228" width="220" height="30" as="geometry" />
        </mxCell>
        <mxCell id="ZX-tmzzD470uD2389-w3-37" value="stoke-on-trent" style="text;html=1;align=center;verticalAlign=middle;resizable=0;points=[];autosize=1;strokeColor=none;fillColor=none;" parent="1" vertex="1">
          <mxGeometry x="200" y="308" width="100" height="30" as="geometry" />
        </mxCell>
        <mxCell id="ZX-tmzzD470uD2389-w3-42" value="" style="html=1;verticalAlign=bottom;labelBackgroundColor=none;endArrow=block;endFill=1;rounded=0;" parent="1" source="ZX-tmzzD470uD2389-w3-11" edge="1">
          <mxGeometry width="160" relative="1" as="geometry">
            <mxPoint x="220" y="340" as="sourcePoint" />
            <mxPoint x="380" y="340" as="targetPoint" />
          </mxGeometry>
        </mxCell>
        <mxCell id="ZX-tmzzD470uD2389-w3-43" value="" style="html=1;verticalAlign=bottom;labelBackgroundColor=none;endArrow=block;endFill=1;rounded=0;" parent="1" edge="1">
          <mxGeometry width="160" relative="1" as="geometry">
            <mxPoint x="155.5" y="178" as="sourcePoint" />
            <mxPoint x="380" y="178" as="targetPoint" />
          </mxGeometry>
        </mxCell>
        <mxCell id="ZX-tmzzD470uD2389-w3-44" value="" style="html=1;verticalAlign=bottom;labelBackgroundColor=none;endArrow=block;endFill=1;endSize=6;align=left;rounded=0;" parent="1" edge="1">
          <mxGeometry x="-1" relative="1" as="geometry">
            <mxPoint x="390" y="444.5" as="sourcePoint" />
            <mxPoint x="670" y="445" as="targetPoint" />
          </mxGeometry>
        </mxCell>
        <mxCell id="ZX-tmzzD470uD2389-w3-45" value="send city name to fetch data" style="text;html=1;align=center;verticalAlign=middle;resizable=0;points=[];autosize=1;strokeColor=none;fillColor=none;" parent="1" vertex="1">
          <mxGeometry x="455" y="418" width="170" height="30" as="geometry" />
        </mxCell>
        <mxCell id="ZX-tmzzD470uD2389-w3-48" value="send data to website" style="text;html=1;align=center;verticalAlign=middle;resizable=0;points=[];autosize=1;strokeColor=none;fillColor=none;" parent="1" vertex="1">
          <mxGeometry x="470" y="533" width="130" height="30" as="geometry" />
        </mxCell>
        <mxCell id="ZX-tmzzD470uD2389-w3-49" value="" style="html=1;verticalAlign=bottom;labelBackgroundColor=none;endArrow=open;endFill=0;dashed=1;rounded=0;" parent="1" source="ZX-tmzzD470uD2389-w3-12" edge="1">
          <mxGeometry width="160" relative="1" as="geometry">
            <mxPoint x="337.25" y="620" as="sourcePoint" />
            <mxPoint x="162.75" y="620" as="targetPoint" />
          </mxGeometry>
        </mxCell>
        <mxCell id="ZX-tmzzD470uD2389-w3-50" value="" style="html=1;verticalAlign=bottom;labelBackgroundColor=none;endArrow=open;endFill=0;dashed=1;rounded=0;" parent="1" edge="1">
          <mxGeometry width="160" relative="1" as="geometry">
            <mxPoint x="680" y="570" as="sourcePoint" />
            <mxPoint x="390" y="570" as="targetPoint" />
            <Array as="points">
              <mxPoint x="510.5" y="570" />
            </Array>
          </mxGeometry>
        </mxCell>
        <mxCell id="ZX-tmzzD470uD2389-w3-51" value="display weather data in website" style="text;html=1;align=center;verticalAlign=middle;resizable=0;points=[];autosize=1;strokeColor=none;fillColor=none;" parent="1" vertex="1">
          <mxGeometry x="180" y="585" width="190" height="30" as="geometry" />
        </mxCell>
        <mxCell id="ZX-tmzzD470uD2389-w3-56" value="condition" style="shape=umlFrame;whiteSpace=wrap;html=1;pointerEvents=0;recursiveResize=0;container=1;collapsible=0;width=170;" parent="1" vertex="1">
          <mxGeometry x="35" y="480" width="710" height="410" as="geometry" />
        </mxCell>
        <mxCell id="ZX-tmzzD470uD2389-w3-11" value="User" style="shape=umlLifeline;perimeter=lifelinePerimeter;whiteSpace=wrap;html=1;container=1;dropTarget=0;collapsible=0;recursiveResize=0;outlineConnect=0;portConstraint=eastwest;newEdgeStyle={&quot;edgeStyle&quot;:&quot;elbowEdgeStyle&quot;,&quot;elbow&quot;:&quot;vertical&quot;,&quot;curved&quot;:0,&quot;rounded&quot;:0};" parent="ZX-tmzzD470uD2389-w3-56" vertex="1">
          <mxGeometry x="71" y="-430" width="100" height="840" as="geometry" />
        </mxCell>
        <mxCell id="ZX-tmzzD470uD2389-w3-61" value="" style="line;strokeWidth=1;fillColor=none;align=left;verticalAlign=middle;spacingTop=-1;spacingLeft=3;spacingRight=3;rotatable=0;labelPosition=right;points=[];portConstraint=eastwest;strokeColor=inherit;" parent="ZX-tmzzD470uD2389-w3-56" vertex="1">
          <mxGeometry y="201" width="710" height="8" as="geometry" />
        </mxCell>
        <mxCell id="ZX-tmzzD470uD2389-w3-63" value="if city name is not &lt;br&gt;valid" style="text;html=1;align=center;verticalAlign=middle;resizable=0;points=[];autosize=1;strokeColor=none;fillColor=none;" parent="ZX-tmzzD470uD2389-w3-56" vertex="1">
          <mxGeometry y="253" width="120" height="40" as="geometry" />
        </mxCell>
        <mxCell id="ZX-tmzzD470uD2389-w3-64" value="" style="html=1;verticalAlign=bottom;labelBackgroundColor=none;endArrow=open;endFill=0;dashed=1;rounded=0;" parent="ZX-tmzzD470uD2389-w3-56" edge="1">
          <mxGeometry width="160" relative="1" as="geometry">
            <mxPoint x="645" y="290" as="sourcePoint" />
            <mxPoint x="355" y="290" as="targetPoint" />
            <Array as="points">
              <mxPoint x="475.5" y="290" />
            </Array>
          </mxGeometry>
        </mxCell>
        <mxCell id="ZX-tmzzD470uD2389-w3-65" value="send 404 error fetching data to website" style="text;html=1;align=center;verticalAlign=middle;resizable=0;points=[];autosize=1;strokeColor=none;fillColor=none;" parent="ZX-tmzzD470uD2389-w3-56" vertex="1">
          <mxGeometry x="385" y="253" width="230" height="30" as="geometry" />
        </mxCell>
        <mxCell id="ZX-tmzzD470uD2389-w3-66" value="" style="html=1;verticalAlign=bottom;labelBackgroundColor=none;endArrow=open;endFill=0;dashed=1;rounded=0;" parent="ZX-tmzzD470uD2389-w3-56" edge="1">
          <mxGeometry width="160" relative="1" as="geometry">
            <mxPoint x="352.25" y="340" as="sourcePoint" />
            <mxPoint x="125" y="340" as="targetPoint" />
          </mxGeometry>
        </mxCell>
        <mxCell id="ZX-tmzzD470uD2389-w3-62" value="If city name is&amp;nbsp;&lt;br&gt;valid" style="text;html=1;align=center;verticalAlign=middle;resizable=0;points=[];autosize=1;strokeColor=none;fillColor=none;" parent="1" vertex="1">
          <mxGeometry x="30" y="533" width="100" height="40" as="geometry" />
        </mxCell>
        <mxCell id="ZX-tmzzD470uD2389-w3-67" value="display invalid city name&amp;nbsp;&lt;br&gt;in. the website" style="text;html=1;align=center;verticalAlign=middle;resizable=0;points=[];autosize=1;strokeColor=none;fillColor=none;" parent="1" vertex="1">
          <mxGeometry x="170" y="773" width="160" height="40" as="geometry" />
        </mxCell>
        <mxCell id="ZX-tmzzD470uD2389-w3-68" value="sita karki&lt;br&gt;2358197" style="text;html=1;align=center;verticalAlign=middle;resizable=0;points=[];autosize=1;strokeColor=none;fillColor=none;" parent="1" vertex="1">
          <mxGeometry x="490" y="213" width="70" height="40" as="geometry" />
        </mxCell>
      </root>
    </mxGraphModel>
  </diagram>
</mxfile>
